<?xml version="1.0" standalone="no"?>
<!DOCTYPE svg PUBLIC "-//W3C//DTD SVG 20010904//EN"
 "http://www.w3.org/TR/2001/REC-SVG-20010904/DTD/svg10.dtd">
<svg version="1.0" xmlns="http://www.w3.org/2000/svg"
 width="512.000000pt" height="512.000000pt" viewBox="0 0 512.000000 512.000000"
 preserveAspectRatio="xMidYMid meet">

<g transform="translate(0.000000,512.000000) scale(0.100000,-0.100000)"
fill="#000000" stroke="none">
<path d="M300 4689 c-112 -22 -217 -107 -268 -217 l-27 -57 -3 -1830 c-2
-1804 -2 -1831 18 -1895 23 -78 77 -151 143 -197 96 -65 60 -63 1024 -63 860
0 873 0 893 20 30 30 27 83 -6 109 -27 21 -32 21 -888 21 -811 0 -863 1 -901
19 -52 23 -111 90 -125 139 -7 28 -9 592 -8 1843 l3 1804 25 45 c14 24 44 58
68 75 l44 30 196 6 c108 3 198 7 199 7 21 16 43 51 43 68 0 73 -32 84 -227 83
-87 -1 -178 -5 -203 -10z"/>
<path d="M870 4687 c-30 -15 -45 -54 -36 -91 14 -56 13 -56 740 -56 l665 0 3
-347 3 -348 27 -57 c35 -76 95 -138 170 -179 l63 -34 315 -6 c173 -4 334 -7
358 -8 l42 -1 -2 -577 -3 -578 -445 -247 -445 -247 -883 -1 -884 0 -29 -29
c-35 -36 -37 -61 -5 -98 l24 -28 633 -3 632 -2 -7 -62 c-3 -33 -6 -94 -6 -134
l0 -74 -621 0 -621 0 -29 -29 c-35 -36 -37 -61 -5 -98 l24 -28 626 -3 626 -3
0 -80 c0 -120 35 -184 125 -232 36 -19 59 -22 220 -25 l180 -3 388 -187 c370
-179 386 -188 360 -199 -20 -9 -138 -12 -426 -13 l-398 0 -24 -25 c-30 -30
-32 -64 -4 -99 l20 -26 408 0 c451 0 467 2 560 64 l50 34 99 -48 c55 -26 113
-51 130 -54 41 -9 107 19 135 58 21 30 22 41 27 320 l5 289 42 12 c101 30 203
121 251 223 24 50 27 70 27 157 0 88 -3 107 -27 158 -15 31 -50 82 -79 112
-53 56 -153 115 -196 115 l-23 0 0 283 c0 325 -2 334 -81 375 -52 27 -92 23
-156 -14 l-43 -25 0 563 c0 613 -1 625 -57 732 -33 62 -739 777 -822 833 -30
20 -81 45 -115 57 -59 20 -81 21 -771 23 -562 3 -715 1 -735 -10z m1930 -584
l375 -378 -305 -3 -305 -2 -55 27 c-40 21 -62 41 -85 77 l-30 49 -3 314 c-3
301 -3 314 15 304 10 -5 187 -180 393 -388z m700 -2622 l0 -900 -232 113 -233
113 -3 660 -2 661 227 126 c126 69 231 126 236 126 4 0 7 -405 7 -899z m-620
-16 c0 -317 -4 -575 -9 -575 -4 0 -110 49 -235 110 l-226 109 0 338 0 338 228
127 c125 69 230 127 235 127 4 1 7 -258 7 -574z m-630 40 l0 -245 -127 0
c-193 0 -173 -25 -173 225 0 279 -9 265 171 265 l129 0 0 -245z m1505 150 c44
-43 75 -114 75 -170 0 -86 -74 -197 -148 -223 l-32 -11 0 234 0 234 32 -11
c17 -6 51 -30 73 -53z"/>
<path d="M550 4047 c-13 -7 -31 -25 -40 -40 -13 -24 -13 -30 0 -54 31 -54 11
-53 757 -50 l692 2 22 22 c14 13 22 34 22 53 0 19 -8 40 -22 53 l-22 22 -692
2 c-541 2 -697 0 -717 -10z"/>
<path d="M550 3617 c-13 -7 -31 -25 -40 -40 -13 -24 -13 -30 0 -54 31 -54 11
-53 757 -50 l692 2 22 22 c14 13 22 34 22 53 0 19 -8 40 -22 53 l-22 22 -692
2 c-541 2 -697 0 -717 -10z"/>
<path d="M550 3187 c-13 -7 -31 -25 -40 -40 -13 -24 -13 -30 0 -54 9 -15 27
-33 40 -40 33 -17 1913 -19 1956 -3 67 26 75 104 13 135 -24 13 -165 15 -986
15 -746 0 -963 -3 -983 -13z"/>
<path d="M529 2741 c-35 -36 -37 -61 -5 -98 l24 -28 954 -3 c524 -1 968 0 986
3 79 14 99 105 31 140 -24 13 -166 15 -994 15 l-967 0 -29 -29z"/>
<path d="M4663 2345 c-16 -7 -33 -20 -37 -30 -15 -40 -5 -66 54 -130 371 -410
384 -1019 29 -1411 -66 -72 -66 -126 0 -153 42 -18 77 4 150 94 184 230 273
501 258 790 -16 288 -119 543 -311 767 -65 76 -97 92 -143 73z"/>
<path d="M529 2311 c-35 -36 -37 -61 -5 -98 l24 -28 954 -3 c524 -1 968 0 986
3 79 14 99 105 31 140 -24 13 -166 15 -994 15 l-967 0 -29 -29z"/>
<path d="M4413 2098 c-12 -6 -27 -23 -33 -38 -14 -34 -6 -52 63 -136 101 -122
167 -306 167 -461 -1 -150 -61 -311 -159 -428 -65 -76 -68 -121 -10 -151 45
-23 75 -8 135 64 67 81 126 194 156 298 30 104 32 331 4 434 -39 141 -138 314
-225 393 -43 38 -61 43 -98 25z"/>
<path d="M4163 1848 c-12 -6 -27 -24 -34 -41 -14 -33 -15 -29 53 -128 88 -128
84 -281 -12 -401 -53 -65 -30 -138 44 -138 27 0 41 8 71 41 47 52 92 147 106
224 27 147 -33 333 -137 425 -37 32 -55 35 -91 18z"/>
</g>
</svg>
