<?xml version="1.0" standalone="no"?>
<!DOCTYPE svg PUBLIC "-//W3C//DTD SVG 20010904//EN"
 "http://www.w3.org/TR/2001/REC-SVG-20010904/DTD/svg10.dtd">
<svg version="1.0" xmlns="http://www.w3.org/2000/svg"
 width="512.000000pt" height="512.000000pt" viewBox="0 0 512.000000 512.000000"
 preserveAspectRatio="xMidYMid meet">

<g transform="translate(0.000000,512.000000) scale(0.100000,-0.100000)"
fill="#000000" stroke="none">
<path d="M2000 4450 c-410 -57 -753 -264 -993 -598 -163 -228 -267 -533 -267
-787 0 -104 10 -127 65 -145 45 -15 86 -6 115 25 20 21 24 41 31 132 20 244
76 417 195 602 70 106 230 269 338 341 155 103 338 175 516 201 125 18 342 7
460 -24 136 -35 246 -80 344 -140 354 -215 567 -575 583 -988 8 -203 -20 -363
-95 -537 -67 -156 -138 -252 -307 -417 -185 -180 -209 -220 -204 -338 2 -40 3
-137 3 -217 0 -132 -2 -152 -26 -218 -15 -41 -42 -99 -60 -130 -43 -73 -187
-217 -260 -260 -130 -77 -298 -112 -442 -93 -256 34 -458 183 -567 418 -28 61
-46 86 -68 98 -50 25 -89 19 -127 -19 -44 -44 -44 -77 -1 -176 87 -200 245
-362 442 -456 148 -70 234 -89 410 -88 133 1 160 4 238 27 167 51 302 133 418
254 196 203 282 460 251 752 -6 55 -6 106 -1 125 6 21 49 69 133 149 146 138
233 249 310 396 126 244 179 510 156 791 -17 210 -58 364 -145 545 -86 179
-201 328 -351 454 -194 162 -405 259 -666 307 -101 18 -339 26 -428 14z"/>
<path d="M2005 3875 c-126 -24 -253 -78 -352 -151 -88 -65 -103 -131 -43 -189
44 -42 93 -39 157 8 109 80 277 137 402 137 89 0 202 -28 291 -71 156 -76 281
-233 325 -404 20 -76 22 -223 6 -295 -7 -30 -31 -93 -54 -140 -38 -77 -56 -99
-202 -245 -182 -182 -235 -259 -291 -422 -47 -140 -60 -256 -45 -409 14 -135
8 -161 -45 -203 -81 -64 -181 -13 -203 103 -13 68 -46 99 -107 99 -41 0 -51
-4 -77 -33 -28 -31 -29 -37 -24 -95 10 -125 75 -218 194 -277 61 -30 76 -33
158 -33 75 0 98 4 140 24 63 32 126 95 162 163 26 49 28 60 24 148 -12 323 -5
383 64 520 48 95 111 173 229 283 67 62 124 126 156 175 199 304 181 711 -44
999 -187 239 -522 364 -821 308z"/>
<path d="M4295 3618 c-48 -37 -57 -74 -39 -159 8 -41 18 -155 21 -254 6 -183
-3 -290 -33 -431 -14 -64 -14 -75 0 -108 22 -52 75 -74 131 -55 52 18 69 51
95 178 41 204 43 473 5 678 -20 108 -37 141 -80 159 -47 19 -68 18 -100 -8z"/>
<path d="M3873 3505 c-40 -40 -39 -30 -13 -220 14 -104 12 -248 -6 -355 -29
-182 -29 -192 1 -228 23 -27 34 -32 70 -32 71 0 99 31 119 132 41 207 43 417
7 608 -21 108 -39 130 -103 130 -32 0 -47 -7 -75 -35z"/>
<path d="M1915 2976 c-44 -20 -72 -55 -86 -108 -12 -42 -11 -53 7 -95 48 -116
226 -128 278 -19 22 48 21 123 -4 164 -36 59 -130 87 -195 58z"/>
<path d="M1286 2581 c-67 -44 -90 -142 -50 -212 41 -72 157 -99 223 -52 41 30
74 105 66 151 -9 55 -37 96 -78 115 -48 23 -124 22 -161 -2z"/>
<path d="M705 2206 c-44 -19 -82 -69 -90 -116 -9 -52 25 -125 74 -157 45 -30
123 -31 169 -3 61 37 89 137 57 203 -32 68 -140 105 -210 73z"/>
</g>
</svg>
